<svg xmlns="http://www.w3.org/2000/svg">
  <defs>
    <symbol id="ros-home" viewBox="0 0 24 24">
      <path d="M4.5 11.4 12 5l7.5 6.4" />
      <path d="M6.5 10.4V19h11v-8.6" />
      <path d="M9.5 19v-5h5v5" />
    </symbol>
    <symbol id="ros-archive" viewBox="0 0 24 24">
      <path d="M4.5 7.5h15v12h-15z" />
      <path d="M6.5 4.5h11l2 3h-15z" />
      <path d="M9 11.5h6" />
      <path d="M10.5 15h3" />
    </symbol>
    <symbol id="ros-living-archive" viewBox="0 0 24 24">
      <path d="M5.5 5.5h9a4 4 0 0 1 4 4v9h-9a4 4 0 0 1-4-4z" />
      <path d="M9 9h5.5" />
      <path d="M9 12h6.5" />
      <path d="M9 15h4" />
      <path d="M18.5 5.5v4" />
      <path d="M14.5 5.5h4" />
    </symbol>
    <symbol id="ros-agent" viewBox="0 0 24 24">
      <path d="M8 8.5a4 4 0 0 1 8 0v3a4 4 0 0 1-8 0z" />
      <path d="M6 18.5a6 6 0 0 1 12 0" />
      <path d="M9.5 11h.01" />
      <path d="M14.5 11h.01" />
      <path d="M12 3.5v-2" />
    </symbol>
    <symbol id="ros-augmentor" viewBox="0 0 24 24">
      <path d="M12 3.5 18.5 7v7.5L12 20.5l-6.5-6V7z" />
      <path d="M12 7.5v9" />
      <path d="M8.2 9.6 12 7.5l3.8 2.1" />
      <path d="M8.2 14.4 12 16.5l3.8-2.1" />
    </symbol>
    <symbol id="ros-engineer" viewBox="0 0 24 24">
      <path d="m14.5 5 4.5 4.5-9.5 9.5H5v-4.5z" />
      <path d="m12.8 6.8 4.4 4.4" />
      <path d="M5 19h14" />
    </symbol>
    <symbol id="ros-addons" viewBox="0 0 24 24">
      <path d="M5 5h6v6H5z" />
      <path d="M13 5h6v6h-6z" />
      <path d="M5 13h6v6H5z" />
      <path d="M14 16h4" />
      <path d="M16 14v4" />
    </symbol>
    <symbol id="ros-terminal" viewBox="0 0 24 24">
      <path d="M4.5 6.5h15v11h-15z" />
      <path d="m8 10 2.3 2L8 14" />
      <path d="M12.5 14h4" />
    </symbol>
    <symbol id="ros-opencode" viewBox="0 0 16 16">
      <path fill-rule="evenodd" clip-rule="evenodd" d="M13 14H3V2h10v12ZM10.5 4.4h-5v7.2h5V4.4Z" />
    </symbol>
    <symbol id="ros-browser" viewBox="0 0 24 24">
      <path d="M4.5 6.5h15v11h-15z" />
      <path d="M4.5 9.5h15" />
      <path d="M7 8h.01" />
      <path d="M9.5 8h.01" />
    </symbol>
    <symbol id="ros-resonant-notes" viewBox="0 0 24 24">
      <path d="M7 5.5h8.2l2.8 2.8v10.2H7z" />
      <path d="M15 5.5v3h3" />
      <path d="M4.8 8.5v10.8h10.4" />
      <path d="M9.5 11.2h5" />
      <path d="M9.5 14h6" />
      <path d="M9.5 16.8h3.4" />
      <path d="M17.6 15.3c1.25 0 2.2.95 2.2 2.15s-.95 2.15-2.2 2.15-2.2-.95-2.2-2.15.95-2.15 2.2-2.15z" />
      <path d="M17.6 15.3v-2.1" />
    </symbol>
    <symbol id="ros-audio" viewBox="0 0 24 24">
      <path d="M6 14V10" />
      <path d="M9 17V7" />
      <path d="M12 19V5" />
      <path d="M15 16V8" />
      <path d="M18 13v-2" />
    </symbol>
    <symbol id="ros-settings" viewBox="0 0 24 24">
      <path d="M12 8.5a3.5 3.5 0 1 1 0 7 3.5 3.5 0 0 1 0-7z" />
      <path d="M12 3.5v2" />
      <path d="M12 18.5v2" />
      <path d="m5.95 5.95 1.4 1.4" />
      <path d="m16.65 16.65 1.4 1.4" />
      <path d="M3.5 12h2" />
      <path d="M18.5 12h2" />
      <path d="m5.95 18.05 1.4-1.4" />
      <path d="m16.65 7.35 1.4-1.4" />
    </symbol>
    <symbol id="ros-help" viewBox="0 0 24 24">
      <path d="M12 20.5a8.5 8.5 0 1 0 0-17 8.5 8.5 0 0 0 0 17z" />
      <path d="M9.7 9a2.4 2.4 0 0 1 4.6 1c0 2-2.3 2.2-2.3 4" />
      <path d="M12 17h.01" />
    </symbol>
    <symbol id="ros-resurrect" viewBox="0 0 24 24">
      <path d="M12 4.5a7.5 7.5 0 1 1-6.6 11" />
      <path d="M5.5 19v-3.5H9" />
      <path d="M12 8v4l3 2" />
    </symbol>
    <symbol id="ros-health" viewBox="0 0 24 24">
      <path d="M4 13h4l2-5 4 10 2-5h4" />
    </symbol>
    <symbol id="ros-notification" viewBox="0 0 24 24">
      <path d="M7.5 17.5h9" />
      <path d="M9 17.5v-6a3 3 0 1 1 6 0v6" />
      <path d="M10.5 20a2 2 0 0 0 3 0" />
    </symbol>
    <symbol id="ros-plus" viewBox="0 0 24 24">
      <path d="M12 5v14" />
      <path d="M5 12h14" />
    </symbol>
    <symbol id="ros-search" viewBox="0 0 24 24">
      <path d="M10.8 17.1a6.3 6.3 0 1 0 0-12.6 6.3 6.3 0 0 0 0 12.6z" />
      <path d="m15.5 15.5 4 4" />
    </symbol>
    <symbol id="ros-project" viewBox="0 0 24 24">
      <path d="M4.5 7.5h5l1.5 2h8.5v8h-15z" />
      <path d="M4.5 7.5V6h5l1.5 2h8.5v1.5" />
    </symbol>
    <symbol id="ros-pin" viewBox="0 0 24 24">
      <path d="m9 4.5 6.5 6.5" />
      <path d="M14 6.5 7.8 12.7 5 12.5l6.5 6.5-.2-2.8 6.2-6.2" />
    </symbol>
    <symbol id="ros-more" viewBox="0 0 24 24">
      <path d="M6 12h.01" />
      <path d="M12 12h.01" />
      <path d="M18 12h.01" />
    </symbol>
    <symbol id="ros-copy" viewBox="0 0 24 24">
      <path d="M8 8h11v11H8z" />
      <path d="M5 16H4V4h12v1" />
    </symbol>
    <symbol id="ros-edit" viewBox="0 0 24 24">
      <path d="m5 17-.8 3.8L8 20l10.5-10.5-3-3z" />
      <path d="m14.5 7.5 3 3" />
    </symbol>
    <symbol id="ros-delete" viewBox="0 0 24 24">
      <path d="M5 7h14" />
      <path d="M10 11v6" />
      <path d="M14 11v6" />
      <path d="m8 7 1-3h6l1 3" />
      <path d="m7 7 1 13h8l1-13" />
    </symbol>
    <symbol id="ros-branch" viewBox="0 0 24 24">
      <path d="M7 6.5v5a5 5 0 0 0 5 5h5" />
      <path d="M17 13.5v6" />
      <path d="M14 16.5h6" />
      <circle cx="7" cy="5" r="2" />
      <circle cx="17" cy="12" r="2" />
    </symbol>
    <symbol id="ros-regenerate" viewBox="0 0 24 24">
      <path d="M19 8a7 7 0 1 0 1 7" />
      <path d="M19 8V4" />
      <path d="M19 8h-4" />
    </symbol>
    <symbol id="ros-save-archive" viewBox="0 0 24 24">
      <path d="M4.5 7.5h15v12h-15z" />
      <path d="M6.5 4.5h11v3h-11z" />
      <path d="M12 11v5" />
      <path d="m9.8 13.8 2.2 2.2 2.2-2.2" />
    </symbol>
    <symbol id="ros-send" viewBox="0 0 24 24">
      <path d="M5 12h12" />
      <path d="m13 7 5 5-5 5" />
    </symbol>
    <symbol id="ros-stop" viewBox="0 0 24 24">
      <path d="M8 8h8v8H8z" />
    </symbol>
    <symbol id="ros-mic" viewBox="0 0 24 24">
      <path d="M12 4.5a3 3 0 0 1 3 3v4.5a3 3 0 1 1-6 0V7.5a3 3 0 0 1 3-3z" />
      <path d="M6.5 12a5.5 5.5 0 0 0 11 0" />
      <path d="M12 17.5v3" />
      <path d="M9.5 20.5h5" />
    </symbol>
    <symbol id="ros-context" viewBox="0 0 24 24">
      <path d="M12 4.5a7.5 7.5 0 1 1-7.5 7.5" />
      <path d="M12 4.5v7.5h7.5" />
    </symbol>
    <symbol id="ros-model" viewBox="0 0 24 24">
      <path d="M7.5 8.5 12 6l4.5 2.5v5L12 16l-4.5-2.5z" />
      <path d="M12 6v10" />
      <path d="m7.5 8.5 4.5 2.5 4.5-2.5" />
      <path d="M5 18.5h14" />
    </symbol>
    <symbol id="ros-telemetry" viewBox="0 0 24 24">
      <path d="M5 19V5" />
      <path d="M5 19h14" />
      <path d="M9 16v-5" />
      <path d="M13 16V8" />
      <path d="M17 16v-8" />
    </symbol>
    <symbol id="ros-chevron-down" viewBox="0 0 24 24">
      <path d="m7 9.5 5 5 5-5" />
    </symbol>
  </defs>
</svg>
